{"title":"Maigret - Maigret e i diamanti - s3e1 - 1968","uid":10617095,"size":1833693972,"categoryP":"video","categoryS":"tv_shows","magnet":"?xt=urn:btih:181e6f1433a7f27688be52c0c3e3228d05d22dd4&amp;dn=Maigret+-+Maigret+e+i+diamanti+-+s3e1+-+1968&amp;tr=udp%3A%2F%2Ftracker.openbittorrent.com%3A80&amp;tr=udp%3A%2F%2Fopen.demonii.com%3A1337&amp;tr=udp%3A%2F%2Ftracker.coppersurfer.tk%3A6969&amp;tr=udp%3A%2F%2Fexodus.desync.com%3A6969","seeders":1,"leechers":0,"uploader":"ziopino","files":-1,"time":1406134882,"description":"Format                                   : MPEG-4\nFormat profile                           : Base Media / Version 2\nCodec ID                                 : mp42\nFile size                                : 1.71 GiB\nDuration                                 : 3h 0mn\nOverall bit rate mode                    : Variable\nOverall bit rate                         : 1 355 Kbps\nEncoded date                             : UTC 2013-03-15 18:41:48\nTagged date                              : UTC 2013-03-15 20:23:00\nWriting application                      : HandBrake 0.9.8 2012071700\n\nVideo\nID                                       : 1\nFormat                                   : AVC\nFormat/Info                              : Advanced Video Codec\nFormat profile                           : &lt;a class=&quot;__cf_email__&quot; href=&quot;/cdn-cgi/l/email-protection&quot; data-cfemail=&quot;0b466a62654b4738253b&quot;&gt;[email&amp;#160;protected]&lt;/a&gt;&lt;script cf-hash='f9e31' type=&quot;text/javascript&quot;&gt;\n/* &lt;![CDATA[ */!function(){try{var t=&quot;currentScript&quot;in document?document.currentScript:function(){for(var t=document.getElementsByTagName(&quot;script&quot;),e=t.length;e--;)if(t[e].getAttribute(&quot;cf-hash&quot;))return t[e]}();if(t&amp;&amp;t.previousSibling){var e,r,n,i,c=t.previousSibling,a=c.getAttribute(&quot;data-cfemail&quot;);if(a){for(e=&quot;&quot;,r=parseInt(a.substr(0,2),16),n=2;a.length-n;n+=2)i=parseInt(a.substr(n,2),16)^r,e+=String.fromCharCode(i);e=document.createTextNode(e),c.parentNode.replaceChild(e,c)}}}catch(u){}}();/* ]]&gt; */&lt;/script&gt;\nFormat settings, CABAC                   : Yes\nFormat settings, ReFrames                : 4 frames\nCodec ID                                 : avc1\nCodec ID/Info                            : Advanced Video Coding\nDuration                                 : 3h 0mn\nBit rate                                 : 1 200 Kbps\nWidth                                    : 720 pixels\nHeight                                   : 576 pixels\nDisplay aspect ratio                     : 5:4\nFrame rate mode                          : Constant\nFrame rate                               : 25.000 fps\nStandard                                 : PAL\nColor space                              : YUV\nChroma subsampling                       : 4:2:0\nBit depth                                : 8 bits\nScan type                                : Progressive\nBits/(Pixel*Frame)                       : 0.116\nStream size                              : 1.51 GiB (89%)\nWriting library                          : x264 core 120\nEncoded date                             : UTC 2013-03-15 18:41:48\nTagged date                              : UTC 2013-03-15 20:22:59\nColor primaries                          : BT.601 NTSC\nTransfer characteristics                 : BT.709\nMatrix coefficients                      : BT.601\n\nAudio\nID                                       : 2\nFormat                                   : AAC\nFormat/Info                              : Advanced Audio Codec\nFormat profile                           : LC\nCodec ID                                 : 40\nDuration                                 : 3h 0mn\nBit rate mode                            : Variable\nBit rate                                 : 151 Kbps\nMaximum bit rate                         : 173 Kbps\nChannel(s)                               : 1 channel\nChannel positions                        : Front: C\nSampling rate                            : 48.0 KHz\nCompression mode                         : Lossy\nStream size                              : 195 MiB (11%)\nEncoded date                             : UTC 2013-03-15 18:41:48\nTagged date                              : UTC 2013-03-15 20:22:54\n\n","torrent":{"xt":"urn:btih:181e6f1433a7f27688be52c0c3e3228d05d22dd4","amp;dn":"Maigret+-+Maigret+e+i+diamanti+-+s3e1+-+1968","amp;tr":["udp%3A%2F%2Ftracker.openbittorrent.com%3A80","udp%3A%2F%2Fopen.demonii.com%3A1337","udp%3A%2F%2Ftracker.coppersurfer.tk%3A6969","udp%3A%2F%2Fexodus.desync.com%3A6969"],"infoHash":"181e6f1433a7f27688be52c0c3e3228d05d22dd4","infoHashBuffer":{"type":"Buffer","data":[24,30,111,20,51,167,242,118,136,190,82,192,195,227,34,141,5,210,45,212]},"announce":[],"urlList":[]}}